PathFileType	4	(X/Y/Z)	/Users/visionmauri/Downloads/Videos/OAW04-top_Sports2D/OAW04-top_Sports2D_m_person00.trc
DataRate	CameraRate	NumFrames	NumMarkers	Units	OrigDataRate	OrigDataStartFrame	OrigNumFrames
30.0	30.0	11	22	m	30.0	887	2367
Frame#	Time	Hip			RHip			RKnee			RAnkle			RBigToe			RSmallToe			RHeel			LHip			LKnee			LAnkle			LBigToe			LSmallToe			LHeel			Neck			Head			Nose			RShoulder			RElbow			RWrist			LShoulder			LElbow			LWrist			
		X1	Y1	Z1	X2	Y2	Z2	X3	Y3	Z3	X4	Y4	Z4	X5	Y5	Z5	X6	Y6	Z6	X7	Y7	Z7	X8	Y8	Z8	X9	Y9	Z9	X10	Y10	Z10	X11	Y11	Z11	X12	Y12	Z12	X13	Y13	Z13	X14	Y14	Z14	X15	Y15	Z15	X16	Y16	Z16	X17	Y17	Z17	X18	Y18	Z18	X19	Y19	Z19	X20	Y20	Z20	X21	Y21	Z21	X22	Y22	Z22
887	29.579163144547763	9.131815185059233	0.23012992773421018	0.0301	9.138860158313713	0.18510662175474216	0.0301	8.983388464045253	0.15006708581921083	0.129	8.85384707205401	0.1121578754161159	0.023	8.769643705538737	0.11188236502699236	0.2179	8.780366105184253	0.0833621526065892	0.1804	8.82094350863147	0.10755572998055322	-0.0119	9.116316466537834	0.26947777396456146	0.0301	8.968185006474517	0.22314615244879915	0.129	8.828143939936437	0.17018990750161903	0.023	8.784501428746665	0.16977044360420174	0.2179	8.772820150335539	0.1872857734914376	0.1804	8.793988900947884	0.15485987313490981	-0.0119	9.374318235633043	0.2841092708023165	0.0008	9.459951244652606	0.3028410836050817	0.0655	9.388985701436312	0.2883422922956431	0.1076	9.363277682746073	0.19953267349237938	-0.01275	9.25368130014277	0.13488384147236862	0.0702	9.15765669458008	0.11745870456984774	0.1076	9.322882077056319	0.35302920974691626	-0.01275	9.195357131133806	0.36214730596595385	0.0702	9.089959785374385	0.3428297640518566	0.1076
888	29.612510566356725	9.144659194396187	0.22967155233703737	0.0301	9.154647023883644	0.18671018683540527	0.0301	9.000119283369495	0.14977108075638382	0.129	8.867942159230342	0.10707421935154657	0.023	8.804757852134104	0.10684207068654193	0.2179	8.81098454104094	0.08159210144332643	0.1804	8.835000766135185	0.0979496445468881	-0.0119	9.133775079478369	0.26978680935314503	0.0301	8.983274082016358	0.2272151946409616	0.129	8.846329060144566	0.1755556108999094	0.023	8.786837318674563	0.16932290980193382	0.2179	8.779623235644415	0.1884000676630267	0.1804	8.81505443760033	0.15919888387871656	-0.0119	9.377003478106202	0.2758123408349811	0.0008	9.46017254274709	0.29048795223722923	0.0655	9.389483409601766	0.283423789945673	0.1076	9.368962985257726	0.19622901878643603	-0.01275	9.257181140777798	0.13108850082540544	0.0702	9.155896591674038	0.10160767782579022	0.1076	9.33259030407486	0.34657434327950937	-0.01275	9.208100480346003	0.35653876988848626	0.0702	9.113044061601194	0.3431518232901763	0.1076
889	29.645857988165684	9.157241132928474	0.22680750134885727	0.0301	9.170582507880132	0.18688200175684624	0.0301	9.01314276268112	0.15021924127965813	0.129	8.879649729597075	0.10477303722221555	0.023	8.828654074763897	0.10606999095423233	0.2179	8.832852341007213	0.08240105117616445	0.1804	8.846044920195157	0.09157643402334593	-0.0119	9.149764230195663	0.26754370502485286	0.0301	8.996001518452845	0.23123937860731067	0.129	8.866898167756846	0.18103446131217477	0.023	8.788062183827671	0.16958169487845765	0.2179	8.78743517577173	0.18825558354508581	0.1804	8.841397856786598	0.16242823910673745	-0.0119	9.380212699774235	0.2705228964818003	0.0008	9.46007313942068	0.2843600662543922	0.0655	9.389238098747965	0.2786871279316992	0.1076	9.374199923350993	0.19344501089904007	-0.01275	9.262459041816493	0.12807899586589266	0.0702	9.15713354561376	0.08948254816967724	0.1076	9.341047802941898	0.3420050175105514	-0.01275	9.21745629476904	0.3521905386528495	0.0702	9.127437976710905	0.3444803629717618	0.1076
890	29.679205409974646	9.16504564102206	0.22318403041819415	0.0301	9.180428846920899	0.18506225801826273	0.0301	9.01821160282692	0.15085862724980434	0.129	8.884189971593027	0.10505141166098911	0.023	8.833247738952492	0.10860291914064714	0.2179	8.838308809710577	0.08428880651297552	0.1804	8.849692279707	0.08948864573433785	-0.0119	9.157912114717469	0.2640127678618137	0.0301	9.001789839775292	0.2340371766004586	0.129	8.883731194227346	0.18418746923660556	0.023	8.789980358912569	0.171663399505501	0.2179	8.794841966705208	0.18756691274778703	0.1804	8.864714382241827	0.16321831672653003	-0.0119	9.383422431432583	0.27009679367998773	0.0008	9.459199236046407	0.28616005102216	0.0655	9.389002837919266	0.2752968304231607	0.1076	9.376973583151628	0.19185118585283034	-0.01275	9.267289019914628	0.12697989584572048	0.0702	9.16104139007347	0.08506020046753973	0.1076	9.344957400680467	0.3404163797949682	-0.01275	9.220188347461445	0.35000809245493153	0.0702	9.128292964258998	0.3464819469683635	0.1076
891	29.712552831783604	9.16826095197146	0.2209326126996304	0.0301	9.18411316636512	0.18286339055972584	0.0301	9.019051450626325	0.15112350326316304	0.129	8.884055841133547	0.10549572260759485	0.023	8.829308512067886	0.11089235713798058	0.2179	8.835838457670354	0.08503500564791158	0.1804	8.848990306212663	0.08918552020653842	-0.0119	9.159747561762469	0.2615116678151918	0.0301	9.003116938182702	0.2355965120985036	0.129	8.893985828107462	0.18502441871993983	0.023	8.793691392769858	0.17479465112971607	0.2179	8.800817068685529	0.1875756923732569	0.1804	8.879335860533477	0.16271559386756707	-0.0119	9.386002707504414	0.27153092735552925	0.0008	9.457995110262898	0.2897432279329264	0.0655	9.38928097033076	0.2732588783948047	0.1076	9.377665843105982	0.191055165541852	-0.01275	9.269923518788103	0.12692811418173683	0.0702	9.164607847029297	0.08496135378231219	0.1076	9.34556224403009	0.3399936857418806	-0.01275	9.219535000124951	0.34891739681832473	0.0702	9.123842135090856	0.34820277069383737	0.1076
892	29.745900253592566	9.168927697349181	0.2203197340067688	0.0301	9.184591520315	0.1817971847420704	0.0301	9.01919668544975	0.15111195231553648	0.129	8.88317582954158	0.10539221706400706	0.023	8.826584928251187	0.11170874692262234	0.2179	8.833762222263104	0.08476547657813706	0.1804	8.847952816911443	0.08922139364952057	-0.0119	9.159374704974576	0.2606935188611647	0.0301	9.003239474304017	0.23619083350877068	0.129	8.897672206992338	0.18489897555076087	0.023	8.796885953474673	0.17691471580797777	0.2179	8.803954476043844	0.18809069913343937	0.1804	8.884514993530358	0.16228704347149797	-0.0119	9.387270324351256	0.27229968793633147	0.0008	9.457275784074668	0.2911369308467238	0.0655	9.389645208946105	0.27244414139667944	0.1076	9.37753564237992	0.19074594786226953	-0.01275	9.270526841016915	0.12698029583581735	0.0702	9.166056491062998	0.08555010196748765	0.1076	9.345230743347486	0.3396700792006256	-0.01275	9.218798772974631	0.34836635288252266	0.0702	9.121166421571944	0.34901010957620093	0.1076
893	29.779247675401525	9.16871415036298	0.22044611604276487	0.0301	9.184219352442065	0.1817392409517434	0.0301	9.019289226946535	0.15106518021517584	0.129	8.882891562387925	0.10521979312384791	0.023	8.82630587636566	0.11168137294974798	0.2179	8.833483825045944	0.08446878896411171	0.1804	8.847699553003253	0.0892916498504042	-0.0119	9.158961298798376	0.26077523588280116	0.0301	9.003201100335296	0.23621198682249808	0.129	8.89757238677829	0.18471711209334787	0.023	8.797871071480769	0.17738460203264927	0.2179	8.804442885314437	0.18839117266636615	0.1804	8.884305523832152	0.16221620842258708	-0.0119	9.38741616241302	0.2723086010323696	0.0008	9.457162746698694	0.29096994187274416	0.0655	9.389762262890493	0.2724149111694144	0.1076	9.377363062713558	0.19073030704532706	-0.01275	9.27031208451278	0.12696659804667534	0.0702	9.166038027181544	0.08576188092534874	0.1076	9.345020128972829	0.33951561424546234	-0.01275	9.218664483622518	0.34826115361741466	0.0702	9.120885831710103	0.3490843833857602	0.1076
894	29.812595097210487	9.168502525829352	0.2206093186863087	0.0301	9.183989171161459	0.18192242686440926	0.0301	9.01929430802818	0.15104347931929893	0.129	8.882953483610047	0.10517483534178808	0.023	8.826734767168217	0.11151123163364036	0.2179	8.833785232059475	0.08441080540018557	0.1804	8.847801239746477	0.08931006243174251	-0.0119	9.158881611892891	0.2609645695218706	0.0301	9.00316362560389	0.23610024014626346	0.129	8.896817094066707	0.18467200489726615	0.023	8.797605513329403	0.17713235664663732	0.2179	8.80400631165376	0.1883940158310142	0.1804	8.883218042724272	0.1622719060780088	-0.0119	9.387223085870898	0.2721561691224498	0.0008	9.457268916892279	0.29062848392045154	0.0655	9.389737505557422	0.2725525638420136	0.1076	9.377323821083028	0.19077758956756008	-0.01275	9.270114488432448	0.12693756951473054	0.0702	9.165743825408367	0.08570050397834734	0.1076	9.34500579550873	0.339521970045105	-0.01275	9.2187587977588	0.34833308491379655	0.0702	9.121305964370606	0.3489538390640303	0.1076
895	29.845942519019445	9.168462428352349	0.22063682812096713	0.0301	9.18397834890366	0.18199165484196275	0.0301	9.019276384215614	0.15102727053862644	0.129	8.883017299131637	0.10518785488200949	0.023	8.826942091539815	0.11145249239134894	0.2179	8.83394342444091	0.08444266191211974	0.1804	8.847867561247936	0.08930155345442942	-0.0119	9.158932071852437	0.2610155810889242	0.0301	9.003158632217637	0.23604794448267627	0.129	8.8965658833225	0.1846853877429456	0.023	8.797305644063563	0.17692213499277906	0.2179	8.803743820384177	0.18831876448227186	0.1804	8.882866263407537	0.16230155373140123	-0.0119	9.387125701304866	0.27208572132692826	0.0008	9.457345815104253	0.2905195752417194	0.0655	9.389713000245056	0.272583156546663	0.1076	9.377341894617272	0.19078022494566765	-0.01275	9.270084209151701	0.12689772931320503	0.0702	9.165631913632685	0.08558091884240372	0.1076	9.345038946800347	0.3395557716805115	-0.01275	9.218819156149118	0.3483865214945336	0.0702	9.121516294756146	0.3488912193470195	0.1076
896	29.879289940828407	9.168493044543409	0.2206177694451796	0.0301	9.184016809687654	0.18198420959380254	0.0301	9.019269048562611	0.15102690134061822	0.129	8.883028302210437	0.1052013878983508	0.023	8.826930466970655	0.11146262350504771	0.2179	8.833939958067033	0.08446246245430873	0.1804	8.847873067351465	0.08929454611677448	-0.0119	9.158964009131692	0.26099724957909176	0.0301	9.00316307973889	0.23605382588657042	0.129	8.896619108279664	0.18470127307663706	0.023	8.797250795743565	0.17690151351224492	0.2179	8.803735671827171	0.1882949453595304	0.1804	8.882945477001742	0.1623029728447552	-0.0119	9.387125886073168	0.27209269020381066	0.0008	9.457346566849656	0.290552016849026	0.0655	9.389706155080875	0.2725750521376329	0.1076	9.377358879560862	0.19077639882700737	-0.01275	9.270113504506947	0.1268989025858044	0.0702	9.165654268599877	0.08556848111132856	0.1076	9.345055977002255	0.3395689490880397	-0.01275	9.218822662510512	0.3483891676240038	0.0702	9.121512661581983	0.34889344555038415	0.1076
897	29.91263736263737	9.1685387047324	0.22065161263543537	0.0301	9.184021265914076	0.18202336989610352	0.0301	9.01927896217293	0.1511211217472644	0.129	8.883094240529084	0.10522478004147269	0.023	8.826907194588724	0.11148134663065921	0.2179	8.83394154739519	0.08448184545307721	0.1804	8.847970298504695	0.08930108137145114	-0.0119	9.158966901572112	0.26099535433820525	0.0301	9.00315688332043	0.2361075461653945	0.129	8.896641874929923	0.18473689607610722	0.023	8.797341849515162	0.17707719342799372	0.2179	8.803818629788921	0.18839864461791456	0.1804	8.88299032026673	0.16232481427175632	-0.0119	9.3871290670569	0.2721782053839837	0.0008	9.457239499864786	0.2906751175553245	0.0655	9.389664817377874	0.27271307064122724	0.1076	9.377372792569652	0.190874293072269	-0.01275	9.270130141623982	0.1270887821388361	0.0702	9.165730741267739	0.08590763940902757	0.1076	9.345073769208396	0.3395646837545512	-0.01275	9.218815547705246	0.34834204221610704	0.0702	9.121471160816453	0.34890532154028	0.1076
